Coordinates
version=1
nRows=21
nColumns=12
inDegrees=yes

Units are S.I. units (second, meters, Newtons, ...)
Angles are in degrees

endheader
time	SC_y	SC_z	SC_x	AC_y	AC_z	AC_x	GH_y	GH_z	GH_yy	EL_x	PS_y
       0.0              -50.95          19.35          39.71          40.94         -7.252          18.87          147.6         -1.408         -78.02          27.39          6.418
  0.002871              -50.95          19.35          39.72          40.95         -7.254          18.86          147.6         -1.404          -78.0          27.39          6.434
  0.005741              -50.95          19.35          39.72          40.95         -7.255          18.86          147.6         -1.399         -77.96           27.4          6.451
  0.008612              -50.95          19.35          39.73          40.95         -7.257          18.86          147.6         -1.394         -77.93          27.41           6.47
   0.01148              -50.95          19.34          39.74          40.95         -7.258          18.85          147.6         -1.388          -77.9          27.41          6.489
   0.01435              -50.94          19.34          39.75          40.95          -7.26          18.85          147.5         -1.383         -77.86          27.42           6.51
   0.01722              -50.94          19.34          39.76          40.95         -7.262          18.84          147.5         -1.377         -77.82          27.43          6.533
   0.02009              -50.94          19.33          39.77          40.96         -7.263          18.84          147.5          -1.37         -77.77          27.44          6.556
   0.02297              -50.94          19.33          39.77          40.96         -7.265          18.83          147.5         -1.363         -77.73          27.45          6.582
   0.02584              -50.93          19.32          39.79          40.96         -7.268          18.83          147.5         -1.356         -77.68          27.46          6.609
   0.02871              -50.93          19.32           39.8          40.96          -7.27          18.82          147.5         -1.348         -77.63          27.47          6.639
   0.03158              -50.93          19.31          39.81          40.96         -7.272          18.82          147.5         -1.339         -77.57          27.48           6.67
   0.03445              -50.92          19.31          39.82          40.97         -7.275          18.81          147.5          -1.33         -77.51          27.49          6.705
   0.03732              -50.92           19.3          39.84          40.97         -7.278           18.8          147.4          -1.32         -77.44           27.5          6.742
   0.04019              -50.92           19.3          39.85          40.97         -7.281          18.79          147.4         -1.309         -77.37          27.52          6.781
   0.04306              -50.91          19.29          39.87          40.98         -7.285          18.79          147.4         -1.297         -77.29          27.53          6.825
   0.04593              -50.91          19.28          39.89          40.98         -7.288          18.78          147.4         -1.284         -77.21          27.55          6.872
    0.0488               -50.9          19.27          39.91          40.98         -7.292          18.77          147.4          -1.27         -77.11          27.57          6.923
   0.05167               -50.9          19.26          39.93          40.99         -7.297          18.75          147.3         -1.255         -77.01          27.59          6.979
   0.05454              -50.89          19.25          39.95          40.99         -7.302          18.74          147.3         -1.238          -76.9          27.61           7.04
   0.05741              -50.89          19.24          39.98           41.0         -7.307          18.73          147.3          -1.22         -76.78          27.63          7.108
